<svg width="69" height="29" viewBox="0 0 69 29" fill="none" xmlns="http://www.w3.org/2000/svg">
<path fill-rule="evenodd" clip-rule="evenodd" d="M45.2121 7.38189C45.5016 7.38189 45.7911 7.28539 46.0082 7.02002C46.2977 6.68229 46.3459 6.2963 46.2494 5.88619C46.1529 5.47608 45.9117 5.18659 45.5016 5.09009C45.0673 4.96947 44.6814 5.06597 44.3677 5.37958C44.1747 5.57257 44.1024 5.81382 44.0782 6.07918C44.0059 6.77878 44.416 7.38189 45.2121 7.38189ZM43.2339 2.87067H44.0541V4.77648C44.1265 4.7041 44.1989 4.65586 44.2712 4.60761C44.7055 4.31812 45.188 4.24575 45.6704 4.34224C46.4424 4.48699 46.949 5.01772 47.0938 5.78969C47.1903 6.2963 47.142 6.77878 46.9008 7.21302C46.6354 7.74375 46.177 8.03324 45.5981 8.10561C45.188 8.15386 44.7778 8.10561 44.416 7.91262C44.2712 7.81612 44.1265 7.71963 43.9817 7.59901V8.03324H43.2339V2.87067Z" fill="white"/>
<path fill-rule="evenodd" clip-rule="evenodd" d="M51.7731 5.06613C51.4353 5.06613 51.1217 5.21088 50.9046 5.52449C50.7357 5.76573 50.6875 6.0311 50.7116 6.32059C50.7357 6.75482 50.9287 7.09256 51.3388 7.28556C51.7731 7.45443 52.1832 7.4303 52.545 7.11669C52.8586 6.87545 52.9551 6.51358 52.931 6.1276C52.9069 5.52449 52.4485 5.06613 51.7731 5.06613ZM53.0275 4.87314C53.0275 4.72839 53.0275 4.60777 53.0275 4.46303C53.0275 4.41478 53.0516 4.39066 53.0999 4.39066C53.2929 4.39066 53.4859 4.39066 53.6789 4.39066C53.7512 4.39066 53.7512 4.41478 53.7512 4.48715C53.7512 5.21088 53.7512 5.91048 53.7512 6.6342C53.7512 7.09256 53.7512 7.55092 53.7512 7.98516C53.7512 8.00928 53.7512 8.03341 53.7512 8.05753H53.0034V7.59917C52.8828 7.69567 52.7863 7.79216 52.6657 7.86454C52.2555 8.1299 51.7972 8.20228 51.3388 8.1299C50.4704 8.00928 49.9155 7.30968 49.8431 6.46534C49.7949 6.0311 49.8672 5.62099 50.0602 5.235C50.398 4.60777 50.9528 4.31828 51.6766 4.31828C52.0384 4.31828 52.4003 4.41478 52.7139 4.6319C52.8345 4.68015 52.931 4.77664 53.0275 4.87314Z" fill="white"/>
<path fill-rule="evenodd" clip-rule="evenodd" d="M35.7297 6.24803C35.7297 6.07917 35.7056 5.9103 35.6332 5.74143C35.3196 4.99358 34.427 4.94533 33.9445 5.28307C33.5826 5.54843 33.4138 6.05504 33.5103 6.53752C33.7033 7.35775 34.5235 7.57486 35.1025 7.28537C35.5367 7.06826 35.7056 6.70639 35.7297 6.24803ZM36.5499 8.05735H35.8021V7.59899C35.7779 7.59899 35.7779 7.59899 35.7779 7.59899C35.5126 7.88848 35.1748 8.05735 34.7888 8.1056C34.3305 8.17797 33.8962 8.1056 33.4861 7.86435C33.0278 7.57486 32.7865 7.14063 32.69 6.6099C32.6177 6.19979 32.6418 5.78968 32.8107 5.40369C33.0519 4.80058 33.5103 4.43872 34.1616 4.34223C34.6441 4.26985 35.1025 4.34222 35.5126 4.60759C35.6091 4.67996 35.7056 4.77646 35.8262 4.87296V4.4146H36.574V8.05735H36.5499Z" fill="white"/>
<path fill-rule="evenodd" clip-rule="evenodd" d="M58.9615 2.87067H59.7817V5.91031H59.8059C59.9265 5.76557 60.0712 5.62082 60.1918 5.45195C60.4813 5.11422 60.7708 4.77648 61.0603 4.43874C61.0844 4.41461 61.1086 4.39049 61.1568 4.39049C61.4704 4.39049 61.7599 4.39049 62.0735 4.39049C62.0735 4.39049 62.0977 4.39049 62.1218 4.39049C61.6152 4.96947 61.1086 5.54845 60.602 6.12743C61.1809 6.75466 61.7599 7.38189 62.363 8.03324C62.3389 8.03324 62.3148 8.03324 62.2907 8.03324C61.977 8.03324 61.6634 8.03324 61.3498 8.03324C61.3016 8.03324 61.2533 8.00912 61.2292 7.98499C60.7708 7.50251 60.3366 6.9959 59.8782 6.51342C59.8541 6.48929 59.83 6.46517 59.8059 6.44105V8.03324H58.9615V2.87067Z" fill="white"/>
<path fill-rule="evenodd" clip-rule="evenodd" d="M58.0694 4.87289C57.9005 5.06589 57.7317 5.23476 57.5628 5.40362C57.0321 4.89702 56.2119 4.99351 55.8259 5.42775C55.464 5.86198 55.464 6.60983 55.85 7.04407C56.2119 7.45418 57.0562 7.55068 57.5869 6.99582C57.7558 7.18881 57.9247 7.35768 58.0935 7.55068C57.8041 7.81604 57.4904 8.00904 57.1045 8.08141C56.6702 8.15378 56.236 8.12966 55.8259 7.96079C55.271 7.74367 54.9091 7.33356 54.7885 6.73045C54.6438 6.1756 54.692 5.62074 55.0056 5.11413C55.2951 4.63165 55.7294 4.39041 56.2842 4.29391C56.9356 4.19742 57.5387 4.34216 58.0212 4.80052C58.0453 4.84877 58.0453 4.84877 58.0694 4.87289Z" fill="white"/>
<path fill-rule="evenodd" clip-rule="evenodd" d="M40.6034 8.05755H39.7832V4.39067H40.531V4.9214H40.5552C40.8205 4.51129 41.1824 4.29417 41.6649 4.29417C42.0267 4.29417 42.3886 4.41479 42.5816 4.60779C42.5333 4.72841 42.461 4.82491 42.3886 4.94553C42.3404 5.06615 42.268 5.16264 42.2197 5.25914C42.1232 5.21089 42.0267 5.16264 41.9061 5.1144C41.303 4.9214 40.7723 5.25914 40.6517 5.88637C40.6275 6.00699 40.6275 6.15174 40.6275 6.27236C40.6275 6.80309 40.6275 7.33382 40.6275 7.88868V8.05755H40.6034Z" fill="white"/>
<path fill-rule="evenodd" clip-rule="evenodd" d="M48.0813 8.05737H48.9015V2.87067H48.0813V8.05737Z" fill="white"/>
<path fill-rule="evenodd" clip-rule="evenodd" d="M38.5764 8.05752H37.7562V4.39064C37.7803 4.39064 37.8045 4.39064 37.8286 4.39064C38.0457 4.39064 38.287 4.39064 38.5041 4.39064C38.5523 4.39064 38.5764 4.41477 38.5764 4.46301C38.5764 5.6451 38.5764 6.82718 38.5764 7.98514C38.5764 8.00927 38.5764 8.03339 38.5764 8.05752Z" fill="white"/>
<path fill-rule="evenodd" clip-rule="evenodd" d="M37.6364 3.32892C37.6364 3.01531 37.8535 2.82231 38.1671 2.82231C38.4807 2.82231 38.6978 3.03943 38.6978 3.32892C38.6978 3.61841 38.4807 3.83553 38.1671 3.83553C37.8776 3.85965 37.6364 3.64253 37.6364 3.32892Z" fill="white"/>
<path fill-rule="evenodd" clip-rule="evenodd" d="M36.9836 14.1366C36.9595 14.0401 36.9595 13.8954 36.9353 13.7506C36.7906 13.1958 36.477 12.8339 35.9221 12.7133C35.3431 12.5685 34.8365 12.6892 34.4264 13.1475C34.1128 13.5335 34.0163 13.9678 34.0887 14.4502C34.2575 15.5599 35.3673 15.9218 36.1634 15.5599C36.7423 15.2946 36.9595 14.8121 36.9836 14.1366ZM33.9681 16.3319L33.8957 16.7903C33.8957 16.8144 33.8716 16.8385 33.8474 16.8385H32.7377C32.7136 16.8385 32.6895 16.8144 32.6895 16.7903V9.38416C32.6895 9.36003 32.7136 9.33591 32.7377 9.33591H34.0404C34.0646 9.33591 34.0887 9.36003 34.0887 9.38416V12.0619C34.0887 12.0619 34.1369 12.0137 34.1611 11.9896C34.7159 11.5071 35.3673 11.3382 36.0669 11.4106C36.7906 11.4588 37.3696 11.7724 37.8279 12.3273C38.1415 12.7374 38.3104 13.1958 38.3828 13.7024C38.4552 14.3296 38.4069 14.9568 38.1174 15.5358C37.7073 16.3802 37.0077 16.8385 36.0669 16.9109C35.4638 16.9591 34.9089 16.8627 34.4023 16.5249C34.2817 16.4525 34.1852 16.356 34.0646 16.2595C34.0163 16.2595 33.9681 16.2837 33.9681 16.3319Z" fill="#F56563"/>
<path fill-rule="evenodd" clip-rule="evenodd" d="M46.8026 14.209C46.8026 14.2814 46.8267 14.3779 46.8267 14.4744C47.0197 15.7047 48.3224 15.9701 49.0944 15.4635C49.6492 15.0775 49.8422 14.3296 49.6492 13.6783C49.3356 12.6409 48.2018 12.4962 47.5504 12.8339C47.0438 13.1234 46.8267 13.6059 46.8026 14.209ZM49.8422 12.0378L49.9146 11.5795C49.9146 11.5553 49.9387 11.5312 49.9629 11.5312H51.0726C51.0967 11.5312 51.1208 11.5553 51.1208 11.5795V16.742C51.1208 16.7662 51.0967 16.7903 51.0726 16.7903H49.9629C49.9387 16.7903 49.9146 16.7662 49.9146 16.742C49.8905 16.5491 49.8664 16.3802 49.8181 16.1631C49.794 16.1872 49.7699 16.2113 49.7457 16.2354C49.2633 16.6938 48.6843 16.8868 48.0329 16.9109C47.1886 16.9109 46.4648 16.6214 45.9582 15.9459C45.6205 15.5117 45.4758 15.0051 45.4275 14.4744C45.3793 13.8471 45.4516 13.244 45.7653 12.6892C46.1754 11.9413 46.8026 11.5312 47.6228 11.4106C48.2742 11.3141 48.8773 11.4347 49.4321 11.7966C49.5527 11.869 49.6492 11.9655 49.7457 12.062C49.7699 12.1102 49.8181 12.0861 49.8422 12.0378Z" fill="#F56563"/>
<path fill-rule="evenodd" clip-rule="evenodd" d="M40.6763 13.7025H43.2576C43.2817 13.7025 43.33 13.6784 43.3059 13.6302C43.2576 13.2683 43.0888 12.9788 42.751 12.7858C42.4374 12.5928 42.0997 12.5687 41.7378 12.5928C41.1588 12.6411 40.7005 13.0271 40.604 13.6302C40.604 13.6784 40.6281 13.7025 40.6763 13.7025ZM44.6086 14.6675H40.6522C40.6281 14.6675 40.5798 14.6916 40.604 14.7399C40.6522 14.9811 40.7487 15.1741 40.9176 15.343C41.1829 15.6084 41.5207 15.729 41.8825 15.7772C42.4133 15.8255 43.0646 15.7049 43.5471 15.343C43.5712 15.3189 43.5954 15.3189 43.6195 15.343C43.7401 15.4636 43.8607 15.5842 43.9813 15.6807C44.102 15.8014 44.2226 15.8979 44.3673 16.0185C44.3915 16.0426 44.3915 16.0908 44.3673 16.115C44.2226 16.2356 44.1261 16.3321 44.0055 16.4045C43.1853 16.9593 42.2927 17.0799 41.3277 16.9111C40.6763 16.7904 40.0974 16.501 39.6872 15.9702C39.3495 15.5601 39.1806 15.0776 39.1565 14.5469C39.1083 13.9438 39.1806 13.3407 39.4701 12.7858C39.8561 12.0621 40.4833 11.652 41.2553 11.4831C41.8825 11.3625 42.5098 11.3866 43.1129 11.6279C43.9814 11.9415 44.488 12.5928 44.6568 13.5096C44.7292 13.8714 44.7292 14.2333 44.681 14.6193C44.6568 14.6434 44.6327 14.6675 44.6086 14.6675Z" fill="#F56563"/>
<path fill-rule="evenodd" clip-rule="evenodd" d="M63.9798 19.203C64.1004 18.9377 64.7518 17.4178 64.993 16.863C65.0171 16.8147 65.0171 16.7182 64.993 16.6459C64.414 15.1984 63.3043 12.4 63.0148 11.6763C62.9907 11.6039 63.039 11.5074 63.1354 11.5074C63.4249 11.5074 64.028 11.5074 64.3658 11.5074C64.4382 11.5074 64.5105 11.5557 64.5346 11.628C64.8965 12.6171 65.572 14.4988 65.7891 15.0537C65.8132 15.1019 65.8856 15.1019 65.9097 15.0537C66.1751 14.3782 67.2366 11.7004 67.2848 11.5798C67.3089 11.5557 67.3331 11.5074 67.3813 11.5074C67.7673 11.5074 68.491 11.5074 68.7564 11.5074C68.8046 11.5074 68.8288 11.5557 68.8288 11.6039C68.4669 12.4241 65.8615 18.4793 65.6202 19.0583C65.572 19.1548 65.5237 19.203 65.4272 19.203C65.0171 19.203 64.5829 19.203 64.1728 19.203H63.9798Z" fill="#F56563"/>
<path fill-rule="evenodd" clip-rule="evenodd" d="M52.4974 11.5315H53.8001C53.8242 11.5315 53.8483 11.5556 53.8483 11.5798C53.8483 11.9175 53.8483 13.5821 53.8483 14.4264C53.8483 14.74 53.8966 15.0295 54.0896 15.2708C54.379 15.6568 54.7891 15.7533 55.2475 15.6568C55.8024 15.5361 56.1642 15.1019 56.2125 14.5229C56.2125 14.4023 56.2366 14.2576 56.2366 14.1369C56.2366 13.3891 56.2366 11.9175 56.2366 11.6039C56.2366 11.5798 56.2607 11.5557 56.2849 11.5557H57.5876C57.6117 11.5557 57.6358 11.5798 57.6358 11.6039V16.7665C57.6358 16.7906 57.6117 16.8147 57.5876 16.8147H56.4778C56.4537 16.8147 56.4296 16.7906 56.4296 16.7665C56.4055 16.5976 56.3813 16.4287 56.3331 16.2357C56.309 16.2599 56.2849 16.2599 56.2849 16.2599C55.7059 16.8388 54.9821 17.0077 54.2102 16.8871C53.2935 16.7423 52.6421 16.091 52.4732 15.126C52.425 14.9089 52.425 14.6677 52.425 14.4506C52.425 13.6062 52.425 11.9175 52.425 11.6039C52.4491 11.5798 52.4732 11.5315 52.4974 11.5315Z" fill="#F56563"/>
<path fill-rule="evenodd" clip-rule="evenodd" d="M59.5653 12.7134H58.7451C58.7209 12.7134 58.6968 12.6893 58.6968 12.6651V11.6278C58.6968 11.6037 58.7209 11.5796 58.7451 11.5796H59.5653C59.5894 11.5796 59.6135 11.5554 59.6135 11.5313V10.301C59.6135 10.2769 59.6377 10.2527 59.6618 10.2527C60.096 10.2045 60.5302 10.1562 60.9645 10.108C60.9886 10.108 61.0368 10.1321 61.0368 10.1562V11.4831C61.0368 11.5072 61.061 11.5313 61.0851 11.5313H62.3878C62.4119 11.5313 62.4361 11.5554 62.4361 11.5796V12.641C62.4361 12.6651 62.4119 12.6893 62.3878 12.6893H61.0851C61.061 12.6893 61.0368 12.7134 61.0368 12.7375C61.0368 13.027 61.0368 14.2815 61.0368 14.9087C61.0368 15.0052 61.0368 15.1017 61.061 15.1741C61.1575 15.5359 61.4711 15.7289 61.8812 15.6324C62.0259 15.6083 62.1466 15.5601 62.2913 15.5359C62.3154 15.5359 62.3637 15.5359 62.3637 15.5842C62.4843 15.8978 62.5808 16.2355 62.7014 16.5733C62.7014 16.5974 62.7014 16.6456 62.6773 16.6456C62.6049 16.6698 62.5084 16.718 62.4361 16.7421C61.9294 16.911 61.4228 16.9593 60.9162 16.8386C60.2649 16.718 59.8789 16.3079 59.7341 15.6565C59.6859 15.3912 59.6618 15.1258 59.6376 14.8604C59.6376 14.2573 59.6376 13.027 59.6376 12.7375C59.6135 12.7375 59.5894 12.7134 59.5653 12.7134Z" fill="#F56563"/>
<path fill-rule="evenodd" clip-rule="evenodd" d="M49.3117 23.0869C49.3359 23.9313 49.8425 24.5102 50.5903 24.6067C51.1693 24.6791 51.7965 24.4379 52.0619 23.8348C52.2066 23.5211 52.2549 23.2075 52.2066 22.8457C52.1101 21.9048 51.2417 21.3741 50.3491 21.6153C49.6977 21.8083 49.3117 22.3873 49.3117 23.0869ZM49.2635 18.2379C49.3117 18.2379 49.3359 18.2621 49.3359 18.3103V20.9399C49.4082 20.8916 49.4806 20.8675 49.5289 20.8192C50.6868 19.9025 53.0992 20.1196 53.5817 22.3632C53.7506 23.1593 53.6782 23.9554 53.2681 24.655C52.8097 25.427 52.1343 25.8129 51.2417 25.8612C50.6144 25.8853 50.0355 25.7647 49.5289 25.3546C49.4565 25.2822 49.36 25.2098 49.2635 25.1375L49.167 25.6682C49.167 25.7164 49.1187 25.7647 49.0705 25.7647H48.0573C48.009 25.7647 47.9608 25.7164 47.9608 25.6682V18.3344C47.9608 18.2862 47.9849 18.2621 48.0332 18.2621L49.2635 18.2379Z" fill="#F56563"/>
<path fill-rule="evenodd" clip-rule="evenodd" d="M45.2113 20.4571H46.3692C46.4416 20.4571 46.514 20.5295 46.514 20.6018V25.6679C46.514 25.7162 46.4898 25.7403 46.4416 25.7403L45.356 25.7644C45.3319 25.7644 45.2836 25.7403 45.2836 25.7162L45.1871 25.2096C45.1148 25.2578 45.0665 25.3061 45.0183 25.3543C44.3428 25.9092 43.5708 26.0539 42.7506 25.8127C42.051 25.6197 41.6168 25.1131 41.3996 24.4376C41.3273 24.1722 41.2549 23.8827 41.2549 23.6174C41.2308 22.773 41.2549 21.1567 41.2549 20.6742C41.2549 20.6018 41.3273 20.5295 41.3996 20.5295H42.5576C42.63 20.5295 42.7024 20.5777 42.7024 20.6742C42.7024 21.1326 42.7024 22.6041 42.7024 23.3037C42.7024 23.5209 42.7265 23.738 42.7747 23.931C42.8953 24.3893 43.3296 24.6788 43.8121 24.6788C44.4634 24.6788 44.9218 24.2928 45.0424 23.6415C45.0665 23.4967 45.0665 23.3279 45.0906 23.159C45.0906 22.5076 45.0906 21.1084 45.0906 20.6501C45.0906 20.5053 45.1389 20.4571 45.2113 20.4571Z" fill="#F56563"/>
<path fill-rule="evenodd" clip-rule="evenodd" d="M37.5638 21.1568C37.0331 21.6875 37.2502 21.4704 36.7195 22.0012C36.2852 21.6393 35.8269 21.4946 35.272 21.5911C34.9343 21.6393 34.6448 21.8082 34.4277 22.0735C33.9452 22.6284 33.9693 23.5934 34.4518 24.1482C34.7654 24.486 35.1755 24.6307 35.6339 24.6307C36.044 24.6307 36.237 24.5342 36.816 24.1241L37.6362 25.0167C37.1537 25.4992 36.5747 25.7887 35.8993 25.861C35.3203 25.9093 34.7654 25.861 34.2106 25.6439C33.2938 25.2579 32.8114 24.5342 32.6666 23.5451C32.5942 23.1109 32.6425 22.6525 32.7631 22.2424C33.0044 21.3739 33.5592 20.795 34.4036 20.5296C35.2962 20.2401 36.1646 20.2642 37.009 20.7708C37.2261 20.8432 37.395 20.9638 37.5638 21.1568Z" fill="#F56563"/>
<path fill-rule="evenodd" clip-rule="evenodd" d="M38.5517 25.6441V18.3103C38.5517 18.2621 38.5758 18.2379 38.6241 18.2379H39.8785C39.9268 18.2379 39.9509 18.2621 39.9509 18.3103V25.6199C39.9509 25.6682 39.9268 25.6923 39.8785 25.6923H38.6241C38.5758 25.7164 38.5517 25.6923 38.5517 25.6441Z" fill="#F56563"/>
<path fill-rule="evenodd" clip-rule="evenodd" d="M14.3804 20.3126C11.0271 20.3126 8.3011 17.5865 8.3011 14.2333C8.3011 10.88 11.0271 8.15397 14.3804 8.15397C17.7337 8.15397 20.4597 10.88 20.4597 14.2333C20.4597 17.5865 17.7578 20.3126 14.3804 20.3126ZM14.3804 0C10.6894 0 7.31201 1.3992 4.80309 3.71512L1.25684 0.192994C0.846726 -0.217117 0.171249 0.0723722 0.171249 0.651353V14.2333C0.171249 22.0736 6.54003 28.4424 14.3804 28.4424C18.0714 28.4424 21.4488 27.0432 23.9577 24.7273L27.4798 28.2494C27.8899 28.6595 28.5654 28.37 28.5654 27.7911V14.2091C28.5895 6.36878 22.2207 0 14.3804 0Z" fill="#F56563"/>
</svg>
