<svg width="36" height="35" viewBox="0 0 36 35" fill="none" xmlns="http://www.w3.org/2000/svg">
<circle cx="18" cy="17.4702" r="17.0702" fill="#CA3660"/>
<path fill-rule="evenodd" clip-rule="evenodd" d="M17.5993 17.5595C19.3389 17.5595 20.7492 16.1493 20.7492 14.4097C20.7492 12.6701 19.3389 11.2598 17.5993 11.2598C15.8597 11.2598 14.4495 12.6701 14.4495 14.4097C14.4495 16.1493 15.8597 17.5595 17.5993 17.5595ZM28.099 14.9345C28.099 16.0942 27.1588 17.0344 25.9991 17.0344C24.8393 17.0344 23.8992 16.0942 23.8992 14.9345C23.8992 13.7748 24.8393 12.8346 25.9991 12.8346C27.1588 12.8346 28.099 13.7748 28.099 14.9345ZM10.2497 22.0218C10.2497 20.5834 10.9426 19.3024 12.0031 18.5045C11.5726 18.242 11.0581 18.0845 10.5121 18.0845H7.88726C6.29133 18.0845 4.99989 19.3759 4.99989 20.9718V21.4968C4.99989 21.9273 5.35688 22.2843 5.78736 22.2843H10.2497V22.0218ZM10.0999 17.0344C11.2597 17.0344 12.1998 16.0942 12.1998 14.9345C12.1998 13.7748 11.2597 12.8346 10.0999 12.8346C8.94017 12.8346 8.00002 13.7748 8.00002 14.9345C8.00002 16.0942 8.94017 17.0344 10.0999 17.0344ZM30.1987 21.4968V20.9718C30.1987 19.3759 28.9073 18.0845 27.3114 18.0845H24.6865C24.1405 18.0845 23.6261 18.242 23.1956 18.5045C24.256 19.3024 24.949 20.5834 24.949 22.0218V22.2843H29.4113C29.8418 22.2843 30.1987 21.9273 30.1987 21.4968ZM14.7119 19.1345H20.4866C22.0794 19.1345 23.374 20.429 23.374 22.0218V23.5968C23.374 24.0314 23.0212 24.3842 22.5865 24.3842H12.612C12.1773 24.3842 11.8245 24.0314 11.8245 23.5968V22.0218C11.8245 20.429 13.1191 19.1345 14.7119 19.1345Z" fill="#F5F5F5"/>
</svg>
