<svg width="35" height="35" viewBox="0 0 35 35" fill="none" xmlns="http://www.w3.org/2000/svg">
<g clip-path="url(#clip0_1_307)">
<path d="M26.8581 0.94043H8.12097C3.90623 0.94043 0.489517 4.35715 0.489517 8.57188V27.309C0.489517 31.5237 3.90623 34.9404 8.12097 34.9404H26.8581C31.0728 34.9404 34.4895 31.5237 34.4895 27.309V8.57188C34.4895 4.35715 31.0728 0.94043 26.8581 0.94043Z" fill="url(#paint0_linear_1_307)"/>
<path d="M12.2664 6.82886H22.8657C23.1012 6.94663 23.4545 6.94663 23.6901 7.0644C24.7236 7.2319 25.69 7.68436 26.4806 8.3709C27.2712 9.05745 27.8546 9.95088 28.1653 10.9508C28.3392 11.527 28.4575 12.1185 28.5186 12.7173V23.081C28.3502 24.3945 27.8653 25.6474 27.1054 26.7319C26.4535 27.4872 25.6362 28.082 24.7171 28.47C23.7979 28.8581 22.8017 29.029 21.8058 28.9695H12.9731C11.3968 29.046 9.84693 28.5433 8.6156 27.5563C7.86682 26.9093 7.27592 26.0997 6.88809 25.1893C6.50026 24.2789 6.32578 23.2919 6.37798 22.3037V14.0599C6.35852 13.4686 6.39797 12.8768 6.49575 12.2934C6.61467 11.086 7.11111 9.94678 7.9145 9.03767C8.7179 8.12856 9.78739 7.49579 10.971 7.22927L12.2664 6.82886ZM8.6156 18.0169V22.6099C8.56538 23.1948 8.64363 23.7836 8.84486 24.3351C9.04608 24.8866 9.36542 25.3874 9.78052 25.8025C10.1956 26.2176 10.6964 26.5369 11.2479 26.7381C11.7994 26.9394 12.3882 27.0176 12.9731 26.9674C16.0351 27.0852 19.0971 27.0852 22.1591 26.9674C24.8678 26.9674 26.3988 25.3186 26.5165 22.6099C26.6343 19.5479 26.6343 16.4859 26.5165 13.4239C26.547 12.8437 26.4552 12.2635 26.247 11.721C26.0389 11.1785 25.7189 10.6858 25.3081 10.2749C24.8972 9.86406 24.4045 9.54415 23.862 9.33596C23.3195 9.12777 22.7393 9.03596 22.1591 9.06647C19.0971 8.94871 16.0351 8.94871 12.9731 9.06647C12.3882 9.01626 11.7994 9.09451 11.2479 9.29573C10.6964 9.49696 10.1956 9.8163 9.78052 10.2314C9.36542 10.6465 9.04608 11.1473 8.84486 11.6988C8.64363 12.2503 8.56538 12.8391 8.6156 13.4239V18.0169Z" fill="#F5F5F5"/>
<path d="M11.8425 18.064C11.8456 16.5345 12.4546 15.0685 13.5361 13.987C14.6176 12.9054 16.0836 12.2964 17.6132 12.2933C19.1342 12.3235 20.5846 12.9411 21.6603 14.0169C22.7361 15.0926 23.3537 16.543 23.3839 18.064C23.3807 19.5936 22.7718 21.0595 21.6902 22.1411C20.6087 23.2226 19.1427 23.8316 17.6132 23.8347C16.0921 23.8046 14.6418 23.1869 13.566 22.1112C12.4903 21.0354 11.8726 19.5851 11.8425 18.064ZM17.6132 14.4132C16.8979 14.4015 16.1954 14.6038 15.5957 14.9939C14.9961 15.3841 14.5266 15.9445 14.2475 16.6031C13.9684 17.2618 13.8923 17.9889 14.029 18.6911C14.1657 19.3933 14.509 20.0387 15.0149 20.5446C15.5207 21.0504 16.1661 21.3937 16.8683 21.5304C17.5705 21.6672 18.2976 21.5911 18.9563 21.3119C19.615 21.0328 20.1753 20.5633 20.5655 19.9637C20.9557 19.364 21.1579 18.6616 21.1462 17.9463C21.1462 17.0092 20.774 16.1106 20.1114 15.448C19.4488 14.7854 18.5502 14.4132 17.6132 14.4132Z" fill="#F5F5F5"/>
<path d="M22.0884 12.0579C22.0818 11.8705 22.1139 11.6838 22.1826 11.5094C22.2513 11.3349 22.3551 11.1765 22.4877 11.0439C22.6202 10.9114 22.7787 10.8075 22.9531 10.7388C23.1276 10.6701 23.3143 10.6381 23.5016 10.6446C23.8683 10.6694 24.2135 10.8263 24.4734 11.0861C24.7332 11.346 24.8901 11.6912 24.9149 12.0579C24.9149 12.4327 24.766 12.7921 24.5009 13.0572C24.2359 13.3222 23.8764 13.4711 23.5016 13.4711C23.1268 13.4711 22.7674 13.3222 22.5023 13.0572C22.2373 12.7921 22.0884 12.4327 22.0884 12.0579Z" fill="#F5F5F5"/>
</g>
<defs>
<linearGradient id="paint0_linear_1_307" x1="-1.67744" y1="36.8247" x2="38.3641" y2="-2.62798" gradientUnits="userSpaceOnUse">
<stop stop-color="#FED576"/>
<stop offset="0.26" stop-color="#F47133"/>
<stop offset="0.61" stop-color="#BC3081"/>
<stop offset="1" stop-color="#4C63D2"/>
</linearGradient>
<clipPath id="clip0_1_307">
<rect x="0.489517" y="0.94043" width="34" height="34" rx="17" fill="white"/>
</clipPath>
</defs>
</svg>
