<svg width="35" height="35" viewBox="0 0 35 35" fill="none" xmlns="http://www.w3.org/2000/svg">
<g clip-path="url(#clip0_1_316)">
<path d="M26.5488 0.94043H7.81167C3.59694 0.94043 0.180222 4.35715 0.180222 8.57188V27.309C0.180222 31.5237 3.59694 34.9404 7.81167 34.9404H26.5488C30.7635 34.9404 34.1802 31.5237 34.1802 27.309V8.57188C34.1802 4.35715 30.7635 0.94043 26.5488 0.94043Z" fill="#0B86CA"/>
<path d="M9.60177 15.0728H13.1348V26.4729H9.60177V15.0728ZM11.4036 9.40808C11.8084 9.40809 12.2041 9.52798 12.5409 9.75263C12.8776 9.97728 13.1402 10.2966 13.2957 10.6704C13.4511 11.0441 13.4924 11.4556 13.4143 11.8527C13.3361 12.2499 13.1421 12.6151 12.8567 12.9021C12.5713 13.1891 12.2073 13.3852 11.8106 13.4656C11.4139 13.546 11.0022 13.5071 10.6276 13.3538C10.2529 13.2005 9.93209 12.9397 9.70551 12.6043C9.47893 12.2688 9.35678 11.8738 9.35445 11.469C9.3529 11.199 9.40476 10.9312 9.50704 10.6812C9.60933 10.4313 9.76002 10.204 9.95046 10.0124C10.1409 9.8209 10.3673 9.6689 10.6167 9.56518C10.8661 9.46147 11.1335 9.40808 11.4036 9.40808ZM15.396 15.0728H18.7996V16.6273C19.1402 16.0459 19.6324 15.5679 20.2236 15.2443C20.8147 14.9208 21.4826 14.7638 22.156 14.7901C25.6891 14.7901 26.4074 17.1455 26.4074 20.2193V26.4729H22.8744V20.9612C22.8744 19.6422 22.8744 17.9346 21.0372 17.9346C19.2 17.9346 18.9173 19.3714 18.9173 20.8553V26.4964H15.3842L15.396 15.0728Z" fill="#F5F5F5"/>
</g>
<defs>
<clipPath id="clip0_1_316">
<rect x="0.180222" y="0.94043" width="34" height="34" rx="17" fill="white"/>
</clipPath>
</defs>
</svg>
