<svg width="10" height="13" viewBox="0 0 10 13" fill="none" xmlns="http://www.w3.org/2000/svg">
<g clip-path="url(#clip0_1_109)">
<g clip-path="url(#clip1_1_109)">
<path fill-rule="evenodd" clip-rule="evenodd" d="M8.95383 0.186348H0.291824V11.855C0.291824 12.074 0.476264 12.1522 0.701674 12.0289L4.21295 10.757C4.43836 10.6337 4.80726 10.6337 5.03266 10.757L8.54397 12.0289C8.76937 12.1522 8.95383 12.0739 8.95383 11.855V0.186348ZM4.621 3.70272C3.98747 3.70272 3.41049 3.9444 2.9772 4.34044L2.37147 3.73489C2.3026 3.66604 2.1848 3.71478 2.1848 3.81213V6.13701C2.1848 7.48138 3.27552 8.57124 4.621 8.57124C5.25451 8.57124 5.8315 8.32955 6.26481 7.9335L6.87051 8.53882C6.9394 8.60766 7.05717 8.55892 7.05717 8.46157V6.13701C7.05717 4.79259 5.96646 3.70272 4.621 3.70272ZM4.62451 7.17975C4.04788 7.17975 3.58043 6.71265 3.58043 6.13647C3.58043 5.56028 4.04788 5.09323 4.62451 5.09323C5.20114 5.09323 5.6686 5.56028 5.6686 6.13647C5.6686 6.71265 5.20114 7.17975 4.62451 7.17975Z" fill="#FAFAFA"/>
</g>
</g>
<defs>
<clipPath id="clip0_1_109">
<rect width="9" height="12.1406" fill="white" transform="translate(0.0800018 0.1297)"/>
</clipPath>
<clipPath id="clip1_1_109">
<rect width="9" height="12.1406" fill="white" transform="translate(0.0800018 0.1297)"/>
</clipPath>
</defs>
</svg>
